<?xml version="1.0" encoding="UTF-8"?>
<svg xmlns="http://www.w3.org/2000/svg" xmlns:xlink="http://www.w3.org/1999/xlink" width="50px" height="51px" viewBox="0 0 50 51" version="1.1">
<g id="surface1">
<path style=" stroke:none;fill-rule:nonzero;fill:rgb(12.941176%,58.823529%,95.294118%);fill-opacity:1;" d="M 18.828125 9.078125 C 16.308594 9.863281 14.441406 12.59375 14.441406 15.53125 L 14.441406 16.527344 L 11.03125 16.527344 C 6.199219 16.527344 6.566406 15.898438 6.566406 24.398438 C 6.566406 32.53125 6.460938 32.269531 9.425781 32.269531 L 11.238281 32.269531 L 11.34375 35.992188 C 11.449219 39.980469 11.660156 40.742188 12.921875 41.871094 C 13.890625 42.761719 14.707031 43.078125 16.019531 43.078125 C 17.332031 43.078125 18.144531 42.761719 19.117188 41.871094 C 20.378906 40.742188 20.589844 39.980469 20.691406 35.992188 L 20.796875 32.269531 L 22.609375 32.269531 C 25.578125 32.269531 25.472656 32.53125 25.472656 24.398438 C 25.472656 15.898438 25.839844 16.527344 21.007812 16.527344 L 17.59375 16.527344 L 17.59375 15.347656 C 17.59375 13.851562 18.144531 12.722656 19.171875 12.199219 C 20.21875 11.648438 24.421875 11.648438 25.472656 12.199219 C 26.917969 12.933594 26.917969 12.90625 27.046875 24.921875 L 27.179688 36.074219 L 27.914062 37.304688 C 30.015625 40.875 35.109375 40.875 37.210938 37.304688 C 37.921875 36.125 37.945312 35.914062 38.023438 31.742188 L 38.128906 27.390625 L 39.023438 26.785156 C 39.496094 26.445312 40.203125 25.894531 40.574219 25.550781 L 41.230469 24.949219 L 41.230469 19.28125 C 41.230469 12.09375 41.570312 12.59375 36.503906 12.59375 C 31.433594 12.59375 31.773438 12.09375 31.773438 19.28125 L 31.773438 24.949219 L 32.433594 25.550781 C 32.800781 25.894531 33.507812 26.445312 34.007812 26.785156 L 34.925781 27.414062 L 34.925781 31.558594 C 34.925781 35.601562 34.898438 35.707031 34.269531 36.335938 C 33.378906 37.253906 31.75 37.253906 30.855469 36.335938 L 30.199219 35.707031 L 30.199219 25.105469 C 30.199219 12.90625 30.148438 12.539062 28.230469 10.625 C 27.441406 9.839844 26.679688 9.339844 25.710938 9.078125 C 23.976562 8.550781 20.507812 8.550781 18.828125 9.078125 Z M 38.078125 19.703125 C 38.078125 23.480469 38.050781 23.691406 37.5 24.160156 C 36.738281 24.765625 36.265625 24.765625 35.53125 24.160156 C 34.953125 23.691406 34.925781 23.480469 34.925781 19.703125 L 34.925781 15.742188 L 38.078125 15.742188 Z M 22.320312 24.398438 L 22.320312 29.121094 L 9.714844 29.121094 L 9.714844 19.675781 L 22.320312 19.675781 Z M 17.59375 35.730469 C 17.59375 38.566406 17.515625 39.273438 17.148438 39.667969 C 16.621094 40.242188 15.546875 40.269531 14.914062 39.691406 C 14.496094 39.324219 14.441406 38.828125 14.441406 35.757812 L 14.441406 32.269531 L 17.59375 32.269531 Z M 17.59375 35.730469 "/>
</g>
</svg>
